<svg xmlns="http://www.w3.org/2000/svg" xmlns:xlink="http://www.w3.org/1999/xlink" width="0" height="0" style="position:absolute">
	
		<symbol id="3d" viewBox="0 0 133 123">
			<g filter="url(#a)"><path d="M106 62c0 22.091-17.909 40-40 40-19.543 0-35.812-14.015-39.306-32.543A40.218 40.218 0 0 1 26 62c0-22.091 17.909-40 40-40 19.989 0 36.553 14.662 39.525 33.818.313 2.015.475 4.08.475 6.182z" fill="#fff" fill-opacity=".07"></path><path d="M105.75 62c0 21.953-17.797 39.75-39.75 39.75-19.42 0-35.588-13.927-39.06-32.339A39.97 39.97 0 0 1 26.25 62c0-21.953 17.797-39.75 39.75-39.75 19.864 0 36.325 14.57 39.278 33.606.311 2.003.472 4.054.472 6.144z" stroke="#fff" stroke-opacity=".15" stroke-width=".5"></path></g><path d="M66.046 117C39.174 117 16.804 97.73 12 72.254M66.046 7c27.485 0 50.261 20.16 54.347 46.5" stroke="#7D846D" stroke-width="1.5"></path><path d="M114.187 65.023c.275-2.435 2.384-4.188 4.726-3.926l-.241 2.133c-1.246-.139-2.355.712-2.502 2.015-.147 1.302.745 2.377 1.992 2.517 1.265.141 2.374-.71 2.521-2.013.036-.32.014-.63-.068-.925l4.8 2.2.521-4.626 1.794.2-.821 7.289-4.775-2.255-.002.02c-.821 1.513-2.455 2.44-4.211 2.243-2.341-.262-4.008-2.436-3.734-4.872zM123.986 80.811c-1.623 4.12-5.065 5.548-8.569 4.178-3.486-1.362-5.014-4.897-3.446-8.874l1.713-4.349 12.016 4.697-1.714 4.348zm-10.137-4.125c-1.094 2.775-.494 5.09 2.355 6.306 2.602 1.017 4.807.084 6.04-3.045l.891-2.263-8.388-3.278-.898 2.28zM102.8 91.532l7.961 7.537 3.122-3.272 1.408 1.332-7.66 8.028-1.408-1.332 3.122-3.272-7.962-7.536 1.417-1.485zM94.269 98.772c.983-.613 2.174-.505 2.174-.505l1.041 1.657s-1.126-.149-1.996.394c-1.064.664-.912 1.442-.798 2.087l9.707 5.591-1.983 1.236-7.212-4.37c.616 3.445 1.52 7.919 1.52 7.919l-1.934 1.206-1.871-10.476c-.475-2.682-.26-3.734 1.352-4.74zM84.452 117.888c-2.468.767-4.86-.26-5.621-2.69-.761-2.429.638-4.635 3.142-5.413l3.756-1.168-1.324-4.224 1.978-.615 3.857 12.311-5.788 1.799zm-1.82-6.318c-1.343.417-2.195 1.637-1.78 2.96.42 1.342 1.823 1.881 3.166 1.464l3.665-1.14-1.386-4.424-3.665 1.14zM17.823 57.932c-.275 2.436-2.384 4.188-4.726 3.927l.24-2.134c1.247.14 2.356-.711 2.503-2.014.147-1.303-.745-2.378-1.992-2.517-1.265-.142-2.374.71-2.52 2.012-.037.321-.014.63.067.925l-4.8-2.2-.521 4.626-1.794-.2.821-7.288 4.775 2.254.002-.019c.82-1.514 2.455-2.44 4.21-2.244 2.342.262 4.01 2.437 3.735 4.872zM8.024 42.144c1.623-4.119 5.065-5.548 8.569-4.178 3.486 1.362 5.014 4.897 3.447 8.874l-1.714 4.35-12.015-4.697 1.713-4.35zM18.16 46.27c1.094-2.776.495-5.09-2.355-6.307-2.601-1.016-4.807-.083-6.04 3.046l-.891 2.262 8.388 3.279.898-2.28zM29.21 31.423l-7.961-7.537-3.122 3.272-1.407-1.332 7.66-8.028 1.407 1.332-3.122 3.272 7.962 7.536-1.417 1.485zM37.741 24.184c-.983.613-2.174.504-2.174.504l-1.041-1.657s1.126.15 1.996-.394c1.065-.663.912-1.441.798-2.087l-9.707-5.59 1.983-1.237 7.212 4.37c-.616-3.444-1.52-7.918-1.52-7.918l1.934-1.207 1.872 10.476c.474 2.683.26 3.734-1.353 4.74zM47.558 5.067c2.468-.767 4.86.26 5.621 2.69.762 2.43-.638 4.635-3.142 5.414l-3.755 1.167 1.323 4.224-1.977.615-3.858-12.31 5.788-1.8zm1.82 6.319c1.343-.418 2.195-1.638 1.78-2.961-.42-1.342-1.823-1.88-3.166-1.463L44.328 8.1l1.387 4.424 3.665-1.14z" fill="#CDD4BD"></path><path d="M70.75 56.25L50.562 76.438M53.944 73.056a19.013 19.013 0 0 1 24.112-24.112 19.014 19.014 0 0 1-24.112 24.112z" stroke="#fff" stroke-width="1.5" stroke-linecap="round" stroke-linejoin="round"></path><defs><filter id="a" x="6" y="2" width="120" height="120" filterUnits="userSpaceOnUse" color-interpolation-filters="sRGB"><feFlood flood-opacity="0" result="BackgroundImageFix"></feFlood><feGaussianBlur in="BackgroundImageFix" stdDeviation="10"></feGaussianBlur><feComposite in2="SourceAlpha" operator="in" result="effect1_backgroundBlur_156_2299"></feComposite><feBlend in="SourceGraphic" in2="effect1_backgroundBlur_156_2299" result="shape"></feBlend></filter></defs>
		</symbol>
	
		<symbol id="arrow-right" viewBox="0 0 32 32">
			<path d="M24.093 19.24L16 27.333 7.907 19.24M16 4.667v22.44" stroke="#fff" stroke-width="1.5" stroke-miterlimit="10" stroke-linecap="round" stroke-linejoin="round"></path>
		</symbol>
	
		<symbol id="calling" viewBox="0 0 22 22">
			<path d="M13.15 5.33a.76.76 0 0 0-.892.606c-.08.413.19.816.602.897a3.077 3.077 0 0 1 2.439 2.444.764.764 0 0 0 .894.606.769.769 0 0 0 .602-.899 4.6 4.6 0 0 0-3.645-3.653z" fill="#fff"></path><path d="M13.095 2.236a.726.726 0 0 0-.556.156.758.758 0 0 0-.287.52.764.764 0 0 0 .673.843 6.144 6.144 0 0 1 5.445 5.457.762.762 0 1 0 1.515-.17c-.404-3.607-3.195-6.406-6.79-6.806z" fill="#fff"></path><path fill-rule="evenodd" clip-rule="evenodd" d="M10.14 11.982c3.545 3.545 4.35-.556 6.607 1.7 2.177 2.176 3.427 2.612.67 5.368-.346.278-2.54 3.618-10.253-4.093C-.55 7.245 2.788 5.048 3.065 4.703c2.765-2.764 3.193-1.506 5.37.67 2.258 2.257-1.842 3.064 1.704 6.609z" fill="#fff"></path>
		</symbol>
	
		<symbol id="leaf" viewBox="0 0 38 38">
			<path d="M23.75 14.25L3.562 34.438M6.944 31.056A19.013 19.013 0 0 1 31.056 6.944 19.014 19.014 0 0 1 6.944 31.056z" stroke="#fff" stroke-width="1.5" stroke-linecap="round" stroke-linejoin="round"></path>
		</symbol>
	
		<symbol id="phone" viewBox="0 0 17 18">
			<path fill-rule="evenodd" clip-rule="evenodd" d="M8.139 8.982c3.546 3.545 4.35-.556 6.608 1.7 2.177 2.176 3.427 2.612.67 5.368-.346.278-2.54 3.618-10.253-4.093C-2.55 4.245.788 2.048 1.065 1.703c2.765-2.764 3.193-1.506 5.37.67C8.693 4.63 4.593 5.437 8.139 8.982z" fill="#fff"></path>
		</symbol>
	
		<symbol id="tg" viewBox="0 0 21 17">
			<path d="M.317 7.908C2.466 6.75 4.864 5.786 7.104 4.815 10.96 3.225 14.83 1.665 18.74.21c.76-.248 2.127-.49 2.261.612-.073 1.56-.375 3.11-.582 4.66-.526 3.41-1.133 6.807-1.726 10.206-.204 1.132-1.654 1.718-2.582.993-2.231-1.473-4.48-2.931-6.681-4.438-.722-.717-.053-1.746.591-2.257 1.838-1.77 3.786-3.274 5.527-5.135.47-1.109-.918-.174-1.375.112-2.516 1.694-4.97 3.492-7.621 4.98-1.355.73-2.934.107-4.288-.3C1.05 9.152-.73 8.657.317 7.908z" fill="#B3B5B6"></path>
		</symbol>
	
		<symbol id="viber" viewBox="0 0 24 26">
			<path fill-rule="evenodd" clip-rule="evenodd" d="M9.794.06c-1.56.16-3.023.468-4.072.855-2.634.973-4.27 2.538-4.991 4.78-.182.565-.45 2.05-.622 3.447-.156 1.274-.142 3.997.027 5.063.48 3.027 1.466 4.896 3.197 6.065.398.268.583.352 1.768.795l.573.215.015 2.36.015 2.36h1.06l1.99-1.969 1.99-1.969 1.874-.068c2.27-.082 3.246-.15 4.207-.294 2.56-.384 4.37-1.348 5.433-2.895.77-1.12 1.394-3.017 1.635-4.968.143-1.157.143-4.287 0-5.346-.213-1.575-.565-2.986-.962-3.863-.455-1.001-1.396-2.078-2.355-2.693C19.05.955 17.439.475 14.492.116c-1.03-.125-3.715-.157-4.698-.056zm2.115 3.937c-.56.072-.808.158-.94.324-.17.21-.125.553.094.74.137.116.196.129.448.098.82-.1 1.62-.103 2.09-.01 1.926.386 3.363 1.695 3.932 3.58.122.405.151.625.158 1.177.004.373-.014.882-.042 1.131-.045.417-.04.465.073.604.232.289.725.254.89-.063.223-.425.286-1.882.116-2.69-.663-3.164-3.642-5.3-6.819-4.891zm-5.37 1.135c-.96.223-1.738.98-1.922 1.873-.096.462-.035.743.379 1.766a16.508 16.508 0 0 0 3.796 5.69c1.43 1.41 2.935 2.466 4.87 3.42 1.256.62 1.56.728 2.04.731.367.002.457-.021.888-.234.59-.29.999-.64 1.298-1.107.457-.715.507-1.172.178-1.621-.15-.203-1.317-1.107-2.19-1.695-.338-.227-.82-.4-1.114-.4-.296 0-.785.25-.974.499-.504.664-.871.867-1.34.742-.334-.089-1.077-.465-1.591-.806-1.149-.76-2.309-2.32-2.443-3.287-.056-.406.168-.795.707-1.23.44-.356.643-.657.646-.956 0-.08-.102-.355-.228-.613-.583-1.19-1.77-2.601-2.33-2.767-.262-.077-.355-.078-.67-.005zm5.496.559c-.378.067-.575.262-.575.566a.46.46 0 0 0 .157.382c.156.153.168.155.777.138 1.14-.033 1.864.238 2.614.979.75.74 1.024 1.455.99 2.582-.017.602-.015.614.14.767a.542.542 0 0 0 .76.013c.414-.409.29-1.976-.237-3.016-.253-.498-.369-.66-.763-1.072a4.447 4.447 0 0 0-2.067-1.223c-.486-.133-1.38-.19-1.796-.116zm.338 1.694c-.356.144-.461.62-.194.883.11.109.24.158.53.198.902.126 1.452.67 1.58 1.56.04.287.09.416.2.525.296.292.83.127.921-.286.06-.266-.082-.916-.293-1.35-.365-.754-1.11-1.323-1.964-1.502-.425-.089-.612-.096-.78-.028z" fill="#B3B5B6"></path>
		</symbol>
	
</svg>
