<svg width="26" height="26" viewBox="0 0 26 26" fill="none" xmlns="http://www.w3.org/2000/svg">
<path d="M22.2307 7.83057C23.6021 9.20193 24.3725 11.0619 24.3725 13.0013C24.3725 14.9407 23.6021 16.8006 22.2307 18.172" stroke="#8D9B6B" stroke-width="1.5" stroke-linecap="round" stroke-linejoin="round"/>
<path d="M8.12451 8.93872V17.0637" stroke="#8D9B6B" stroke-width="2" stroke-linecap="round" stroke-linejoin="round"/>
<path d="M19.3582 10.7031C19.9676 11.3126 20.3101 12.1393 20.3101 13.0012C20.3101 13.8632 19.9676 14.6898 19.3582 15.2993" stroke="#8D9B6B" stroke-width="1.5" stroke-linecap="round" stroke-linejoin="round"/>
<path d="M4.875 4.0625L21.125 21.9375" stroke="#8D9B6B" stroke-width="1.5" stroke-linecap="round" stroke-linejoin="round"/>
<path d="M15.4375 15.6812V22.7511L8.125 17.0636H3.25C3.03451 17.0636 2.82785 16.978 2.67548 16.8256C2.5231 16.6733 2.4375 16.4666 2.4375 16.2511V9.75111C2.4375 9.53562 2.5231 9.32896 2.67548 9.17659C2.82785 9.02421 3.03451 8.93861 3.25 8.93861H8.125L8.81793 8.39966" stroke="#8D9B6B" stroke-width="1.5" stroke-linecap="round" stroke-linejoin="round"/>
<path d="M11.3909 6.39854L15.4375 3.25122V10.8498" stroke="#8D9B6B" stroke-width="1.5" stroke-linecap="round" stroke-linejoin="round"/>
</svg>