<svg width="21" height="17" viewBox="0 0 21 17" fill="none" xmlns="http://www.w3.org/2000/svg">
<path d="M0.317173 7.90763C2.46552 6.75094 4.86367 5.78555 7.10439 4.81523C10.9593 3.22592 14.8295 1.66415 18.7388 0.21016C19.4994 -0.0375849 20.866 -0.279866 21 0.821889C20.9266 2.38141 20.6248 3.93181 20.4177 5.4822C19.8922 8.89165 19.2848 12.2894 18.6925 15.6877C18.4884 16.8196 17.0377 17.4056 16.1095 16.6812C13.8788 15.2083 11.6308 13.7499 9.42857 12.2429C8.70716 11.5264 9.37611 10.4974 10.0204 9.98577C11.8577 8.21593 13.8062 6.71224 15.5475 4.85093C16.0172 3.74222 14.6294 4.67661 14.1716 4.9629C11.6563 6.65715 9.2026 8.45484 6.55068 9.94386C5.19608 10.6727 3.61728 10.0498 2.26329 9.64312C1.04927 9.15182 -0.729719 8.65686 0.31705 7.90771L0.317173 7.90763Z" fill="#B3B5B6"/>
</svg>
