<svg width="231" height="160" viewBox="0 0 231 160" fill="none" xmlns="http://www.w3.org/2000/svg">
<path d="M15.1396 144.859H129.498V27.165L15.1396 97.9048V144.859ZM144.637 159.999H0V89.4688L144.637 0V159.999Z" fill="#4a6244"/>
<path d="M109.88 144.859H212.286V124.385L109.88 88.8144V144.859ZM227.426 159.998H94.746V65.874L227.426 112.964V159.998Z" fill="#4a6244"/>
<path d="M197.166 26.2819C187.354 26.2819 179.368 34.2679 179.368 44.0796C179.368 53.8972 187.354 61.8768 197.166 61.8768C206.983 61.8768 214.969 53.8972 214.969 44.0796C214.969 34.2679 206.983 26.2819 197.166 26.2819ZM197.166 77.0164C179.004 77.0164 164.228 62.2408 164.228 44.0796C164.228 25.918 179.004 11.1422 197.166 11.1422C215.327 11.1422 230.103 25.918 230.103 44.0796C230.103 62.2408 215.327 77.0164 197.166 77.0164Z" fill="#4a6244"/>
</svg>
