<svg width="133" height="123" viewBox="0 0 133 123" fill="none" xmlns="http://www.w3.org/2000/svg">
<g filter="url(#filter0_b_156_2299)">
<path d="M106 62C106 84.0914 88.0914 102 66 102C46.4571 102 30.1877 87.985 26.6939 69.4575C26.2383 67.0414 26 64.5485 26 62C26 39.9086 43.9086 22 66 22C85.989 22 102.553 36.6621 105.525 55.8182C105.838 57.833 106 59.8976 106 62Z" fill="white" fill-opacity="0.07"/>
<path d="M105.75 62C105.75 83.9533 87.9533 101.75 66 101.75C46.5796 101.75 30.4115 87.8228 26.9396 69.4112C26.4869 67.0103 26.25 64.5329 26.25 62C26.25 40.0467 44.0467 22.25 66 22.25C85.8638 22.25 102.325 36.8204 105.278 55.8565C105.589 57.8587 105.75 59.9104 105.75 62Z" stroke="white" stroke-opacity="0.15" stroke-width="0.5"/>
</g>
<path d="M66.0458 117C39.1744 117 16.8038 97.7294 12 72.2541M66.0458 7C93.5306 7 116.307 27.1604 120.393 53.5" stroke="#7D846D" stroke-width="1.5"/>
<path d="M114.187 65.0231C114.462 62.5875 116.571 60.835 118.913 61.0968L118.672 63.2303C117.426 63.091 116.317 63.942 116.17 65.2447C116.023 66.5475 116.915 67.6223 118.162 67.7616C119.427 67.9031 120.536 67.0521 120.683 65.7493C120.719 65.4283 120.697 65.1199 120.615 64.824L125.415 67.024L125.936 62.3983L127.73 62.5988L126.909 69.8867L122.134 67.6322L122.132 67.6511C121.311 69.1653 119.677 70.0915 117.921 69.8951C115.58 69.6333 113.913 67.4586 114.187 65.0231Z" fill="#CDD4BD"/>
<path d="M123.986 80.8114C122.363 84.9302 118.921 86.3591 115.417 84.9895C111.931 83.6269 110.403 80.0922 111.971 76.1148L113.684 71.7662L125.7 76.4628L123.986 80.8114ZM113.849 76.6858C112.755 79.4612 113.355 81.7761 116.204 82.992C118.806 84.0088 121.011 83.0757 122.244 79.9468L123.135 77.6841L114.747 74.4055L113.849 76.6858Z" fill="#CDD4BD"/>
<path d="M102.8 91.5322L110.761 99.0688L113.883 95.7972L115.291 97.1294L107.631 105.157L106.223 103.825L109.345 100.553L101.383 93.0168L102.8 91.5322Z" fill="#CDD4BD"/>
<path d="M94.2689 98.7718C95.2524 98.1586 96.4428 98.2672 96.4428 98.2672L97.4841 99.9242C97.4841 99.9242 96.3583 99.7753 95.4877 100.318C94.4236 100.982 94.576 101.76 94.69 102.405L104.397 107.996L102.414 109.232L95.202 104.862C95.8184 108.307 96.7229 112.781 96.7229 112.781L94.7881 113.987L92.9165 103.511C92.4424 100.829 92.6567 99.7771 94.2689 98.7718Z" fill="#CDD4BD"/>
<path d="M84.4521 117.888C81.9845 118.655 79.592 117.628 78.8308 115.198C78.0696 112.769 79.4691 110.563 81.9729 109.785L85.7287 108.617L84.4051 104.393L86.3827 103.778L90.2399 116.089L84.4521 117.888ZM82.6317 111.57C81.2891 111.987 80.4368 113.207 80.8515 114.53C81.2719 115.872 82.6751 116.411 84.0178 115.994L87.6828 114.854L86.2967 110.43L82.6317 111.57Z" fill="#CDD4BD"/>
<path d="M17.8228 57.9325C17.5483 60.3681 15.4387 62.1205 13.0973 61.8587L13.3378 59.7253C14.584 59.8646 15.6933 59.0136 15.8401 57.7108C15.9869 56.4081 15.0947 55.3333 13.8485 55.1939C12.5834 55.0525 11.4741 55.9035 11.3272 57.2063C11.2911 57.5272 11.3137 57.8356 11.395 58.1315L6.59523 55.9316L6.0739 60.5573L4.28008 60.3567L5.10144 53.0689L9.87599 55.3233L9.87812 55.3045C10.6989 53.7903 12.3329 52.8641 14.0889 53.0604C16.4303 53.3222 18.0973 55.4969 17.8228 57.9325Z" fill="#CDD4BD"/>
<path d="M8.02395 42.1439C9.64676 38.0251 13.0892 36.5963 16.593 37.9658C20.0792 39.3284 21.6068 42.8631 20.0397 46.8405L18.3263 51.1892L6.31059 46.4926L8.02395 42.1439ZM18.1613 46.2695C19.2547 43.4941 18.6556 41.1792 15.806 39.9633C13.2046 38.9466 10.9991 39.8797 9.76628 43.0086L8.87478 45.2713L17.2628 48.5499L18.1613 46.2695Z" fill="#CDD4BD"/>
<path d="M29.2104 31.423L21.2487 23.8864L18.127 27.158L16.7196 25.8258L24.3795 17.7979L25.787 19.1302L22.6653 22.4018L30.6269 29.9384L29.2104 31.423Z" fill="#CDD4BD"/>
<path d="M37.7412 24.1837C36.7577 24.7969 35.5674 24.6882 35.5674 24.6882L34.526 23.0313C34.526 23.0313 35.6518 23.1802 36.5225 22.6373C37.5866 21.9738 37.4341 21.1957 37.3202 20.5502L27.6128 14.9597L29.5959 13.7232L36.8081 18.093C36.1917 14.6486 35.2873 10.1746 35.2873 10.1746L37.222 8.96831L39.0937 19.4444C39.5677 22.1268 39.3535 23.1784 37.7412 24.1837Z" fill="#CDD4BD"/>
<path d="M47.5582 5.06721C50.0257 4.30023 52.4183 5.32736 53.1795 7.7569C53.9407 10.1864 52.5412 12.3923 50.0373 13.1705L46.2816 14.3379L47.6052 18.5624L45.6275 19.1771L41.7703 6.86622L47.5582 5.06721ZM49.3786 11.3856C50.7212 10.9683 51.5734 9.74835 51.1587 8.4248C50.7384 7.08311 49.3351 6.54435 47.9925 6.96168L44.3274 8.10087L45.7135 12.5248L49.3786 11.3856Z" fill="#CDD4BD"/>
<path d="M70.75 56.25L50.5625 76.4375" stroke="white" stroke-width="1.5" stroke-linecap="round" stroke-linejoin="round"/>
<path d="M53.9444 73.0557C52.8052 69.696 52.6288 66.0846 53.4349 62.6298C54.2411 59.1751 55.9978 56.0148 58.5063 53.5063C61.0148 50.9978 64.1751 49.2411 67.6298 48.4349C71.0846 47.6288 74.696 47.8052 78.0557 48.9444C79.1948 52.3041 79.3712 55.9154 78.5651 59.3702C77.7589 62.8249 76.0022 65.9852 73.4937 68.4937C70.9852 71.0022 67.8249 72.7589 64.3702 73.5651C60.9154 74.3712 57.3041 74.1948 53.9444 73.0557V73.0557Z" stroke="white" stroke-width="1.5" stroke-linecap="round" stroke-linejoin="round"/>
<defs>
<filter id="filter0_b_156_2299" x="6" y="2" width="120" height="120" filterUnits="userSpaceOnUse" color-interpolation-filters="sRGB">
<feFlood flood-opacity="0" result="BackgroundImageFix"/>
<feGaussianBlur in="BackgroundImageFix" stdDeviation="10"/>
<feComposite in2="SourceAlpha" operator="in" result="effect1_backgroundBlur_156_2299"/>
<feBlend mode="normal" in="SourceGraphic" in2="effect1_backgroundBlur_156_2299" result="shape"/>
</filter>
</defs>
</svg>
