<svg width="22" height="22" viewBox="0 0 22 22" fill="none" xmlns="http://www.w3.org/2000/svg">
<path d="M13.1502 5.33073C12.727 5.25256 12.3384 5.5226 12.2578 5.93565C12.1773 6.3487 12.4482 6.75197 12.8598 6.83281C14.0991 7.07442 15.0561 8.03376 15.2987 9.27735C15.3677 9.63533 15.6829 9.89648 16.0458 9.89648C16.0945 9.89648 16.1432 9.89204 16.1928 9.88316C16.6044 9.80055 16.8753 9.39816 16.7947 8.98422C16.4327 7.12683 15.003 5.69226 13.1502 5.33073Z" fill="white"/>
<path d="M13.0951 2.23556C12.8968 2.20714 12.6976 2.26577 12.5392 2.3919C12.3763 2.51981 12.2745 2.70458 12.2524 2.91154C12.2054 3.32992 12.5073 3.70833 12.9252 3.75541C15.8066 4.07697 18.0463 6.32165 18.3703 9.21211C18.4137 9.5994 18.7386 9.89164 19.1263 9.89164C19.1555 9.89164 19.1838 9.88986 19.2131 9.88631C19.4158 9.8641 19.5964 9.76373 19.7238 9.60384C19.8504 9.44395 19.908 9.24497 19.885 9.04156C19.4813 5.43514 16.6901 2.63618 13.0951 2.23556Z" fill="white"/>
<path fill-rule="evenodd" clip-rule="evenodd" d="M10.1391 11.9818C13.6849 15.5266 14.4893 11.4256 16.747 13.6817C18.9235 15.8577 20.1745 16.2936 17.4168 19.0505C17.0714 19.3281 14.8767 22.6679 7.16382 14.9571C-0.55003 7.24543 2.7878 5.04849 3.06548 4.70316C5.82983 1.93863 6.25827 3.19688 8.43483 5.37283C10.6925 7.62987 6.5932 8.43691 10.1391 11.9818Z" fill="white"/>
</svg>
