<svg width="40" height="41" viewBox="0 0 40 41" fill="none" xmlns="http://www.w3.org/2000/svg">
<path d="M6.41279 19.2915C9.20881 17.7861 12.3299 16.5297 15.2462 15.2669C20.2632 13.1984 25.3002 11.1658 30.388 9.27352C31.3779 8.95108 33.1565 8.63576 33.3309 10.0697C33.2354 12.0993 32.8426 14.1171 32.5731 16.1349C31.8891 20.5722 31.0986 24.9943 30.3278 29.417C30.0622 30.8902 28.1741 31.6528 26.9661 30.7101C24.0628 28.7932 21.1372 26.895 18.271 24.9337C17.3321 24.0012 18.2027 22.6621 19.0413 21.9962C21.4325 19.6928 23.9684 17.7358 26.2347 15.3133C26.846 13.8704 25.0397 15.0865 24.444 15.4591C21.1704 17.6641 17.9769 20.0037 14.5255 21.9416C12.7625 22.8902 10.7078 22.0796 8.94561 21.5502C7.36559 20.9108 5.05029 20.2666 6.41263 19.2916L6.41279 19.2915Z"/>
</svg>