<svg width="40" height="41" viewBox="0 0 40 41" fill="none" xmlns="http://www.w3.org/2000/svg">
<path fill-rule="evenodd" clip-rule="evenodd" d="M17.4267 5.06944C15.6068 5.25488 13.8993 5.60957 12.6756 6.05624C9.60254 7.17816 7.69504 8.9846 6.85265 11.5709C6.64008 12.2235 6.32764 13.9368 6.1273 15.5485C5.94459 17.0185 5.96156 20.1603 6.1589 21.3905C6.71904 24.8829 7.86853 27.0395 9.889 28.3886C10.3529 28.6983 10.5692 28.7946 11.9517 29.3061L12.6197 29.5534L12.6372 32.2767L12.6546 35H13.2731H13.8915L16.2133 32.728L18.535 30.4561L20.7212 30.3778C23.3687 30.2829 24.5082 30.204 25.629 30.0379C28.6163 29.5952 30.7272 28.483 31.9676 26.6983C32.8652 25.4068 33.5938 23.2173 33.875 20.9662C34.0418 19.6311 34.0416 16.0195 33.8747 14.7979C33.6264 12.9801 33.2164 11.3518 32.7524 10.3403C32.2224 9.18473 31.1245 7.94271 30.0053 7.23247C28.2249 6.10265 26.3461 5.54717 22.9074 5.13386C21.7056 4.98941 18.5732 4.95253 17.4267 5.06944ZM19.8938 9.61195C19.2401 9.6953 18.951 9.79367 18.7962 9.98551C18.5998 10.229 18.6513 10.6243 18.9073 10.8395C19.0665 10.9734 19.1354 10.9883 19.4292 10.9529C20.3859 10.8375 21.3188 10.8333 21.8676 10.942C24.1151 11.3869 25.7918 12.8968 26.4549 15.0728C26.597 15.5392 26.6314 15.7928 26.6391 16.4297C26.6442 16.8605 26.6226 17.448 26.5909 17.7352C26.538 18.2159 26.5447 18.2712 26.6753 18.4318C26.9462 18.7653 27.5214 18.7253 27.715 18.3596C27.9745 17.8692 28.0475 16.1877 27.8498 15.2548C27.0761 11.6048 23.6001 9.13943 19.8938 9.61195ZM13.6296 10.9214C12.509 11.1784 11.601 12.0532 11.3863 13.0827C11.275 13.6158 11.3455 13.9406 11.8286 15.1201C12.863 17.6462 14.3017 19.7787 16.2576 21.6851C17.9265 23.3117 19.6818 24.5312 21.9388 25.632C23.4046 26.347 23.7581 26.4722 24.3191 26.4755C24.7472 26.4779 24.8522 26.4505 25.3545 26.2059C26.0426 25.8707 26.5202 25.4677 26.8692 24.9277C27.4024 24.1028 27.4609 23.5756 27.0768 23.0574C26.9031 22.8231 25.5409 21.7807 24.5219 21.1022C24.1276 20.8396 23.5662 20.6398 23.2228 20.6398C22.8764 20.6398 22.3067 20.9286 22.0859 21.2161C21.4978 21.9819 21.0695 22.2163 20.5217 22.0721C20.1331 21.9698 19.2664 21.5358 18.666 21.1426C17.3262 20.2655 15.9731 18.4643 15.8168 17.3499C15.7511 16.8813 16.0118 16.4321 16.6408 15.9299C17.1541 15.52 17.3917 15.1725 17.3947 14.827C17.3955 14.7354 17.2758 14.4172 17.1287 14.12C16.4488 12.7463 15.0628 11.1188 14.4102 10.9277C14.1048 10.8383 13.9959 10.8374 13.6296 10.9214ZM20.0404 11.5663C19.5999 11.6442 19.3699 11.8684 19.3699 12.2196C19.3699 12.4175 19.4144 12.5241 19.5538 12.6602C19.7348 12.8368 19.7488 12.8393 20.4592 12.8193C21.7905 12.7816 22.6347 13.0942 23.5092 13.9488C24.3838 14.8033 24.7037 15.6281 24.6652 16.929C24.6447 17.623 24.6472 17.6367 24.828 17.8136C25.0773 18.0574 25.4737 18.0641 25.7147 17.8286C26.1978 17.3566 26.0537 15.5479 25.4375 14.3482C25.1425 13.7738 25.0073 13.586 24.5476 13.1113C23.8878 12.4301 23.077 11.9559 22.1357 11.7006C21.5692 11.547 20.5269 11.4801 20.0404 11.5663ZM20.4357 13.5214C20.0198 13.6878 19.8973 14.2362 20.2083 14.54C20.3368 14.6657 20.4889 14.7218 20.8276 14.7687C21.8801 14.9143 22.5211 15.5408 22.6702 16.5695C22.7181 16.8999 22.7756 17.0486 22.9041 17.1741C23.2493 17.5114 23.8715 17.3202 23.9786 16.8439C24.0474 16.5378 23.8828 15.7869 23.6369 15.2856C23.2107 14.4166 22.3421 13.76 21.3457 13.5536C20.8497 13.4509 20.6314 13.4432 20.4357 13.5214Z" fill="white"/>
</svg>