<svg width="29" height="28" viewBox="0 0 29 28" fill="none" xmlns="http://www.w3.org/2000/svg">
<path d="M2.83398 25.6667H26.1673" stroke="white" stroke-width="1.5" stroke-miterlimit="10" stroke-linecap="round" stroke-linejoin="round"/>
<path d="M18.0117 25.655L4.01168 25.6783L4 8.24832C4 7.46665 4.39668 6.74328 5.03835 6.31161L9.70502 3.19663C10.4867 2.67163 11.5133 2.67163 12.295 3.19663L16.9617 6.31161C17.615 6.74328 18 7.46665 18 8.24832L18.0117 25.655Z" stroke="white" stroke-width="1.5" stroke-miterlimit="10" stroke-linecap="round" stroke-linejoin="round"/>
<path d="M23.8105 25.6783V21" stroke="white" stroke-width="1.5" stroke-miterlimit="10" stroke-linecap="round" stroke-linejoin="round"/>
<path d="M23.8333 14C22.55 14 21.5 15.05 21.5 16.3333V18.6667C21.5 19.95 22.55 21 23.8333 21C25.1167 21 26.1667 19.95 26.1667 18.6667V16.3333C26.1667 15.05 25.1167 14 23.8333 14Z" stroke="white" stroke-width="1.5" stroke-miterlimit="10" stroke-linecap="round" stroke-linejoin="round"/>
<path d="M4 16.3333H18" stroke="white" stroke-width="1.5" stroke-miterlimit="10" stroke-linecap="round" stroke-linejoin="round"/>
<path d="M11 25.6667V21.2917" stroke="white" stroke-width="1.5" stroke-miterlimit="10" stroke-linecap="round" stroke-linejoin="round"/>
<path d="M11 12.25C11.9665 12.25 12.75 11.4665 12.75 10.5C12.75 9.5335 11.9665 8.75 11 8.75C10.0335 8.75 9.25 9.5335 9.25 10.5C9.25 11.4665 10.0335 12.25 11 12.25Z" stroke="white" stroke-width="1.5" stroke-miterlimit="10" stroke-linecap="round" stroke-linejoin="round"/>
</svg>
