<svg width="94" height="26" viewBox="0 0 94 26" fill="none" xmlns="http://www.w3.org/2000/svg">
<path d="M9.57 6.93005L3.5 13.0001L9.57 19.0701" stroke="white" stroke-width="1.5" stroke-miterlimit="10" stroke-linecap="round" stroke-linejoin="round"/>
<path d="M20.5 13H3.67004" stroke="white" stroke-width="1.5" stroke-miterlimit="10" stroke-linecap="round" stroke-linejoin="round"/>
<path fill-rule="evenodd" clip-rule="evenodd" d="M39.8229 1.82035C39.3874 1.94393 38.7966 2.30072 38.5679 2.57828C37.9518 3.32649 37.8278 4.2798 38.2409 5.09244C38.3533 5.31352 38.9699 5.93039 40.5015 7.35423C41.6598 8.43106 42.6076 9.3294 42.6076 9.35059C42.6076 9.37172 42.4189 9.40485 42.1885 9.42415C41.383 9.49165 40.5521 9.99276 40.2171 10.613C40.1274 10.7789 39.9491 11.2871 39.8206 11.7424C39.6922 12.1976 39.4218 13.1423 39.2197 13.8418C38.2487 17.2025 38.2245 17.3017 38.2547 17.8016C38.3067 18.6641 38.4479 18.8445 40.6465 20.8575C42.7355 22.7702 43.2304 23.1312 44.4363 23.6218C45.4551 24.0363 46.6682 24.2761 47.746 24.2761C48.4375 24.2761 49.7412 24.074 50.4024 23.8643C52.769 23.1137 54.722 21.312 55.5054 19.1568C55.9851 17.837 55.9617 18.2019 55.9922 11.5918C56.0074 8.29196 55.9997 5.46547 55.9749 5.31078C55.9479 5.14181 55.854 4.95093 55.7399 4.83282C55.3762 4.45647 54.8046 4.47864 53.8367 4.90684C52.7446 5.38982 51.9534 6.10726 51.4267 7.092C51.0485 7.79906 50.9291 8.32861 50.9112 9.37844C50.9029 9.85979 50.8803 10.2539 50.8607 10.2543C50.8412 10.2547 48.9048 8.47821 46.5577 6.30675C44.2106 4.13522 42.1314 2.26035 41.9374 2.14036C41.2803 1.73381 40.5291 1.62014 39.8229 1.82035Z" stroke="white" stroke-width="1.5"/>
<path d="M84.4301 6.93005L90.5001 13.0001L84.4301 19.0701" stroke="white" stroke-width="1.5" stroke-miterlimit="10" stroke-linecap="round" stroke-linejoin="round"/>
<path d="M73.5 13H90.33" stroke="white" stroke-width="1.5" stroke-miterlimit="10" stroke-linecap="round" stroke-linejoin="round"/>
</svg>
