<svg width="26" height="26" viewBox="0 0 26 26" fill="none" xmlns="http://www.w3.org/2000/svg">
<path d="M22.2305 7.82935C22.9095 8.50837 23.4481 9.3145 23.8156 10.2017C24.1831 11.0889 24.3723 12.0398 24.3723 13.0001C24.3723 13.9604 24.1831 14.9112 23.8156 15.7984C23.4481 16.6856 22.9095 17.4918 22.2305 18.1708" stroke="#FFFFFF" stroke-width="1.5" stroke-linecap="round" stroke-linejoin="round"/>
<path d="M8.125 17.0625H3.25C3.03451 17.0625 2.82785 16.9769 2.67548 16.8245C2.5231 16.6722 2.4375 16.4655 2.4375 16.25V9.75C2.4375 9.53451 2.5231 9.32785 2.67548 9.17548C2.82785 9.0231 3.03451 8.9375 3.25 8.9375H8.125L15.4375 3.25V22.75L8.125 17.0625Z" stroke="#FFFFFF" stroke-width="1.5" stroke-linecap="round" stroke-linejoin="round"/>
<path d="M8.125 8.9375V17.0625" stroke="#FFFFFF" stroke-width="1.5" stroke-linecap="round" stroke-linejoin="round"/>
<path d="M19.3574 10.7019C19.6592 11.0037 19.8986 11.362 20.0619 11.7563C20.2253 12.1506 20.3093 12.5732 20.3093 13C20.3093 13.4268 20.2253 13.8494 20.0619 14.2437C19.8986 14.638 19.6592 14.9963 19.3574 15.2981" stroke="#FFFFFF" stroke-width="1.5" stroke-linecap="round" stroke-linejoin="round"/>
</svg>
