<svg width="24" height="26" viewBox="0 0 24 26" fill="none" xmlns="http://www.w3.org/2000/svg">
<path fill-rule="evenodd" clip-rule="evenodd" d="M9.7943 0.0601778C8.23442 0.220894 6.7708 0.528297 5.72197 0.915408C3.08789 1.88774 1.45289 3.45332 0.730843 5.69481C0.548641 6.2604 0.280836 7.74526 0.109113 9.14204C-0.0474928 10.4161 -0.0329488 13.1389 0.136197 14.2051C0.616322 17.2319 1.6016 19.1009 3.33342 20.2701C3.73104 20.5385 3.91645 20.622 5.10144 21.0653L5.67404 21.2796L5.68899 23.6398L5.70393 26H6.23404H6.7641L8.75423 24.031L10.7443 22.062L12.6182 21.9941C14.8875 21.9119 15.8642 21.8435 16.8249 21.6995C19.3854 21.3158 21.1948 20.352 22.2579 18.8052C23.0273 17.6859 23.6518 15.7883 23.8929 13.8374C24.0358 12.6803 24.0357 9.55025 23.8926 8.49148C23.6797 6.91605 23.3283 5.5049 22.9307 4.62829C22.4763 3.62677 21.5353 2.55035 20.576 1.93481C19.0499 0.95563 17.4395 0.474216 14.4921 0.116013C13.4619 -0.00917746 10.7771 -0.0411397 9.7943 0.0601778ZM11.909 3.99702C11.3487 4.06926 11.1009 4.15451 10.9682 4.32077C10.7998 4.53178 10.8439 4.87443 11.0634 5.06094C11.1999 5.17691 11.2589 5.18986 11.5107 5.15915C12.3307 5.05913 13.1304 5.05551 13.6008 5.1497C15.5272 5.53534 16.9644 6.84387 17.5328 8.72975C17.6546 9.13395 17.6841 9.35378 17.6906 9.90574C17.695 10.2791 17.6765 10.7882 17.6493 11.0371C17.604 11.4538 17.6097 11.5017 17.7217 11.6409C17.9539 11.9299 18.4469 11.8953 18.6129 11.5784C18.8353 11.1533 18.8979 9.69603 18.7284 8.88747C18.0652 5.72417 15.0858 3.58751 11.909 3.99702ZM6.5397 5.13188C5.57916 5.35465 4.80083 6.11281 4.61679 7.00498C4.52145 7.46705 4.58186 7.74848 4.99591 8.77077C5.88258 10.96 7.11573 12.8082 8.79219 14.4604C10.2227 15.8702 11.7272 16.9271 13.6618 17.8811C14.9183 18.5007 15.2212 18.6093 15.702 18.6121C16.069 18.6142 16.159 18.5905 16.5896 18.3784C17.1794 18.088 17.5887 17.7387 17.8879 17.2707C18.3449 16.5558 18.3951 16.0988 18.0658 15.6497C17.9169 15.4467 16.7493 14.5433 15.8759 13.9553C15.5379 13.7277 15.0567 13.5545 14.7624 13.5545C14.4655 13.5545 13.9771 13.8048 13.7879 14.0539C13.2838 14.7176 12.9167 14.9208 12.4472 14.7958C12.1141 14.7072 11.3712 14.331 10.8565 13.9903C9.70818 13.2301 8.54838 11.6691 8.41439 10.7032C8.35805 10.2971 8.58153 9.90783 9.12069 9.47258C9.56062 9.11737 9.7643 8.81619 9.76687 8.51677C9.76756 8.43734 9.66495 8.16162 9.53886 7.904C8.95613 6.71347 7.76815 5.30295 7.20872 5.13737C6.94693 5.05986 6.8536 5.05907 6.5397 5.13188ZM12.0346 5.69079C11.6571 5.75834 11.4599 5.9526 11.4599 6.25695C11.4599 6.42847 11.4981 6.52091 11.6175 6.6388C11.7727 6.79194 11.7847 6.79409 12.3936 6.77672C13.5347 6.74408 14.2583 7.01499 15.0079 7.75561C15.7575 8.49617 16.0317 9.21105 15.9987 10.3384C15.9811 10.94 15.9833 10.9518 16.1383 11.1051C16.3519 11.3164 16.6917 11.3222 16.8983 11.1182C17.3124 10.7091 17.1889 9.14153 16.6607 8.10176C16.4078 7.60395 16.292 7.44119 15.8979 7.02976C15.3324 6.43939 14.6375 6.02841 13.8306 5.80716C13.345 5.67405 12.4516 5.61612 12.0346 5.69079ZM12.3735 7.38525C12.017 7.52944 11.912 8.00469 12.1785 8.26803C12.2887 8.37692 12.419 8.42552 12.7094 8.46619C13.6115 8.5924 14.1609 9.13536 14.2888 10.0269C14.3298 10.3133 14.3791 10.4421 14.4892 10.5509C14.7851 10.8432 15.3184 10.6775 15.4102 10.2647C15.4692 9.99942 15.3281 9.34863 15.1174 8.91423C14.752 8.16105 14.0075 7.59201 13.1535 7.41313C12.7283 7.32415 12.5412 7.31742 12.3735 7.38525Z" fill="#B3B5B6"/>
</svg>
